<svg width="512" height="512" viewBox="0 0 512 512" fill="none" xmlns="http://www.w3.org/2000/svg">
<g clip-path="url(#clip0_2_20)">
<path d="M512 0H0V512H512V0Z" fill="#3C82F6"/>
<path d="M353.195 193.182L334.014 205.969L321.226 186.871L340.324 174L353.195 193.182ZM336.505 223.906L317.655 236.611L304.784 217.512L323.966 204.641L332.436 217.346L351.285 204.641L364.156 223.74L345.058 236.611L336.505 223.906ZM386.992 257.785C390.202 261.273 391.808 265.12 391.808 269.327C391.808 272.704 390.95 276.579 389.234 280.953C387.573 285.271 385.663 289.422 383.504 293.408C381.345 297.394 379.407 300.715 377.691 303.372C376.031 306.03 375.2 307.358 375.2 307.358H356.849C351.867 307.081 348.213 304.895 345.888 300.798C343.563 296.646 341.93 292.079 340.989 287.097C340.103 282.059 339.328 278.046 338.664 275.057C338.94 279.541 338.691 284.274 337.916 289.256C337.197 294.183 335.342 298.39 332.353 301.878C329.363 305.365 324.658 307.192 318.236 307.358C313.254 307.081 309.573 304.895 307.192 300.798C304.867 296.702 303.234 292.135 302.293 287.097C301.407 282.059 300.632 278.046 299.968 275.057C300.134 278.379 300.051 281.894 299.719 285.603C299.442 289.312 298.64 292.827 297.311 296.148C296.038 299.414 293.989 302.1 291.166 304.203C288.343 306.307 284.495 307.358 279.624 307.358H275.887V284.855H281.7C283.97 284.855 285.935 284.55 287.596 283.942C289.256 283.333 290.668 282.503 291.83 281.451C292.993 280.399 293.934 279.237 294.654 277.963C295.429 276.635 296.038 275.306 296.481 273.978C296.979 272.594 297.339 271.264 297.56 269.991C297.782 268.718 297.948 267.584 298.058 266.587C298.169 265.591 298.28 264.815 298.39 264.262C298.501 263.653 298.64 263.404 298.806 263.514C298.972 263.57 299.221 264.013 299.553 264.843C299.996 265.95 300.632 267.583 301.463 269.742C302.293 271.846 303.345 274.06 304.618 276.385C305.947 278.71 307.525 280.704 309.351 282.364C311.234 284.025 313.393 284.855 315.828 284.855H320.312C322.582 284.855 324.547 284.55 326.208 283.942C327.869 283.333 329.28 282.503 330.443 281.451C331.606 280.399 332.574 279.237 333.349 277.963C334.124 276.635 334.733 275.306 335.176 273.978C335.619 272.594 335.951 271.264 336.173 269.991C336.394 268.718 336.56 267.584 336.671 266.587C336.837 265.591 336.948 264.815 337.003 264.262C337.114 263.653 337.252 263.404 337.418 263.514C337.584 263.57 337.861 264.013 338.249 264.843C338.636 265.95 339.245 267.583 340.075 269.742C340.906 271.846 341.958 274.06 343.231 276.385C344.559 278.71 346.137 280.704 347.964 282.364C349.846 284.025 352.033 284.855 354.524 284.855C355.52 284.855 364.959 284.855 382.84 284.855C377.691 281.146 372.792 277.354 368.142 273.479C363.547 269.604 361.25 267.667 361.25 267.667L369.554 232.874C369.941 236.749 371.851 240.818 375.283 245.08C378.771 249.288 382.674 253.523 386.992 257.785Z" fill="white"/>
<path d="M256.623 228.307L237.524 241.178L224.654 221.996L243.835 209.208L256.623 228.307ZM271.653 284.855H276.386V307.358H213.36V284.855H221.913C222.522 279.32 223.879 274.171 225.982 269.41C228.141 264.65 230.466 260.47 232.957 256.872C235.504 253.273 237.718 250.478 239.6 248.485C241.482 246.437 242.424 245.413 242.424 245.413C242.424 245.413 243.337 245.745 245.164 246.409C247.046 247.018 249.371 248.153 252.139 249.814C254.907 251.474 257.703 253.799 260.526 256.789C263.349 259.723 265.785 263.515 267.833 268.165C269.881 272.76 271.155 278.323 271.653 284.855ZM239.683 284.855H260.36C256.761 281.202 252.471 278.184 247.489 275.804C242.562 273.423 238.133 271.652 234.203 270.49C230.328 269.327 228.39 268.746 228.39 268.746C228.39 268.746 228.058 269.3 227.394 270.407C226.729 271.514 226.176 272.87 225.733 274.476C225.29 276.026 225.29 277.604 225.733 279.209C226.231 280.814 227.532 282.171 229.636 283.278C231.739 284.33 235.089 284.855 239.683 284.855Z" fill="white"/>
<path d="M192.933 284.44C192.933 284.44 200.046 284.579 214.273 284.855V307.359C208.461 307.359 203.949 306.058 200.738 303.456C197.527 300.799 195.147 297.339 193.597 293.076C192.047 288.758 190.967 284.053 190.359 278.96C189.75 273.867 189.196 268.802 188.698 263.764C187.923 256.512 187.092 247.904 186.207 237.939C184.712 224.93 183.439 214.716 182.387 207.298L207.962 179.315C209.014 191.494 208.876 203.728 207.547 216.017C206.274 228.307 204.475 239.6 202.15 249.897C199.88 260.193 197.777 268.525 195.839 274.891C193.901 281.257 192.933 284.44 192.933 284.44Z" fill="white"/>
<path d="M146.598 264.926C142.224 265.978 138.405 267.556 135.138 269.66C131.872 271.763 129.326 273.756 127.499 275.638C125.672 277.465 124.759 278.379 124.759 278.379C124.759 278.379 124.869 278.489 125.091 278.711C130.627 283.416 136.965 285.769 144.107 285.769C145.048 285.769 147.345 285.547 150.999 285.105C154.708 284.662 158.721 284.053 163.039 283.278C167.357 282.503 171.149 281.562 174.415 280.454L166.61 301.712C166.61 301.712 164.395 301.795 159.967 301.961C155.538 302.127 150.334 302.542 144.356 303.207C138.432 303.871 132.924 304.951 127.831 306.445C122.794 307.94 119.389 310.044 117.618 312.756C117.618 312.258 117.95 310.985 118.614 308.936C119.278 306.943 120.662 304.591 122.766 301.878C124.869 299.11 128.08 296.287 132.398 293.408C131.18 292.246 129.381 289.976 127.001 286.599C124.676 283.222 123.264 279.596 122.766 275.721C122.434 269.078 123.762 262.186 126.752 255.045C129.796 247.848 133.505 242.7 137.879 239.6C144.522 238.825 150.251 239.849 155.068 242.672C159.884 245.496 163.814 249.011 166.859 253.218C169.904 257.37 172.146 261.134 173.585 264.511C175.08 267.888 175.827 269.577 175.827 269.577C175.827 269.577 175.273 269.161 174.166 268.331C173.114 267.445 171.398 266.56 169.018 265.674C166.693 264.733 163.676 264.124 159.967 263.847C156.258 263.57 151.801 263.93 146.598 264.926Z" fill="white"/>
</g>
<defs>
<clipPath id="clip0_2_20">
<rect width="512" height="512" rx="148" fill="white"/>
</clipPath>
</defs>
</svg>
